<svg width="259" height="48" viewBox="0 0 259 48" fill="none" xmlns="http://www.w3.org/2000/svg">
<g clip-path="url(#clip0_37768_9085)">
<mask id="mask0_37768_9085" style="mask-type:luminance" maskUnits="userSpaceOnUse" x="0" y="0" width="259" height="48">
<path d="M259 0H0V48H259V0Z" fill="white"/>
</mask>
<g mask="url(#mask0_37768_9085)">
<path d="M85.2837 18.4188C86.4775 19.7958 87.0744 21.9161 87.0744 24.7798V36.0334H81.8911V26.0349C81.8911 22.6838 80.7643 21.0082 78.5107 21.0082C77.7737 21.0082 77.1098 21.2093 76.519 21.6054C75.9282 22.0075 75.4531 22.6168 75.0998 23.4332C74.7465 24.2497 74.5699 25.2245 74.5699 26.3456V36.0334H69.3866V26.0349C69.3866 22.6838 68.2476 21.0082 65.9636 21.0082C65.1779 21.0082 64.4835 21.2093 63.8744 21.6054C63.2653 22.0075 62.7842 22.6168 62.4248 23.4332C62.0654 24.2497 61.8827 25.2245 61.8827 26.3456V36.0151H56.6994V16.6762H61.8827V19.2291H61.9375C62.6989 18.303 63.5821 17.5901 64.587 17.0905C65.592 16.597 66.6336 16.3472 67.7177 16.3472C70.4099 16.3472 72.3224 17.383 73.4614 19.4606H73.5223C74.308 18.4553 75.2764 17.6815 76.4337 17.1514C77.5849 16.6153 78.8578 16.3472 80.2526 16.3472C82.421 16.3472 84.0959 17.0357 85.2897 18.4188" fill="#E50056"/>
<path d="M108.374 16.6763V36.0152H103.191V33.6572H103.112C102.362 34.5346 101.497 35.1987 100.511 35.6557C99.524 36.1127 98.4764 36.3442 97.3679 36.3442C96.2593 36.3442 95.3274 36.198 94.4869 35.9116C93.6464 35.6191 92.9033 35.1683 92.2516 34.5468C91.5999 33.9314 91.1065 33.0967 90.7654 32.0548C90.4243 31.0129 90.2538 29.7639 90.2538 28.3198V16.6763H95.4371V26.9672C95.4371 28.7098 95.7051 29.9284 96.2411 30.6291C96.7771 31.3297 97.6602 31.6831 98.8967 31.6831C100.133 31.6831 101.126 31.1957 101.948 30.2147C102.77 29.2338 103.185 27.8507 103.185 26.0594V16.6824H108.368L108.374 16.6763Z" fill="#E50056"/>
<path d="M141.179 18.4188C142.373 19.7958 142.97 21.9161 142.97 24.7798V36.0334H137.787V26.0349C137.787 22.6838 136.66 21.0082 134.406 21.0082C133.669 21.0082 133.011 21.2093 132.414 21.6054C131.824 22.0075 131.349 22.6168 130.995 23.4332C130.642 24.2497 130.465 25.2245 130.465 26.3456V36.0334H125.282V26.0349C125.282 22.6838 124.143 21.0082 121.859 21.0082C121.073 21.0082 120.379 21.2093 119.77 21.6054C119.161 22.0075 118.68 22.6168 118.32 23.4332C117.961 24.2497 117.778 25.2245 117.778 26.3456V36.0151H112.595V16.6762H117.778V19.2291H117.839C118.6 18.303 119.484 17.5901 120.489 17.0905C121.494 16.597 122.535 16.3472 123.619 16.3472C126.311 16.3472 128.224 17.383 129.363 19.4606H129.424C130.21 18.4553 131.178 17.6815 132.335 17.1514C133.486 16.6153 134.759 16.3472 136.154 16.3472C138.323 16.3472 139.998 17.0357 141.191 18.4188" fill="#E50056"/>
<path d="M152.423 31.6463V31.7621H161.644V36.015H145.558V32.4811L154.877 20.9715V20.9167H146.259V16.6821H161.857V20.1612L152.423 31.6463Z" fill="#E50056"/>
<path d="M213.319 21.2212C212.466 19.7163 211.285 18.5404 209.798 17.7178C208.318 16.9014 206.637 16.481 204.81 16.481C203.366 16.481 202.014 16.743 200.784 17.2609C199.554 17.7787 198.506 18.4855 197.665 19.369C196.825 20.2525 196.161 21.3126 195.692 22.519C195.223 23.7254 194.985 25.0171 194.985 26.3698C194.985 27.7224 195.223 28.9958 195.692 30.1961C196.161 31.3964 196.825 32.4505 197.665 33.3279C198.506 34.2053 199.554 34.912 200.784 35.4299C202.014 35.9478 203.366 36.2037 204.81 36.2037C206.637 36.2037 208.318 35.7894 209.798 34.973C211.285 34.1504 212.466 32.9806 213.319 31.4817C214.172 29.989 214.598 28.2647 214.598 26.3759C214.598 24.4871 214.165 22.7262 213.319 21.2212ZM212.192 26.3759C212.192 27.8321 211.857 29.1603 211.199 30.318C210.541 31.4756 209.64 32.3774 208.519 33.0049C207.399 33.6325 206.144 33.9554 204.786 33.9554C203.354 33.9554 202.051 33.6081 200.924 32.9318C199.791 32.2555 198.908 31.3294 198.305 30.1839C197.696 29.0385 197.385 27.7529 197.385 26.3698C197.385 24.9867 197.69 23.6767 198.293 22.5251C198.896 21.3736 199.773 20.4474 200.906 19.7589C202.039 19.0765 203.342 18.7292 204.786 18.7292C205.809 18.7292 206.783 18.9181 207.685 19.2837C208.586 19.6493 209.378 20.1733 210.036 20.8313C210.694 21.4893 211.224 22.3058 211.607 23.2624C211.991 24.219 212.192 25.2609 212.192 26.3698" fill="#E50056"/>
<path d="M227.51 16.5056C227.291 16.4934 226.956 16.4873 226.487 16.4873C225.092 16.4873 223.807 16.8285 222.674 17.5048C221.639 18.1202 220.762 18.9854 220.08 20.0699V16.6823H217.716V36.0212H220.08V26.5345C220.08 24.3228 220.652 22.501 221.785 21.1118C222.912 19.7348 224.428 19.0341 226.298 19.0341C226.512 19.0341 226.914 19.0585 227.492 19.1073L227.517 16.5117L227.51 16.5056Z" fill="#E50056"/>
<path d="M233.163 7.0127H230.799V36.015H233.163V7.0127Z" fill="#E50056"/>
<path d="M255.735 36.015V7.0127H253.372V20.2039C252.599 19.0767 251.606 18.181 250.418 17.5352C249.139 16.8345 247.726 16.4811 246.215 16.4811C244.863 16.4811 243.584 16.7431 242.427 17.261C241.264 17.7789 240.265 18.4918 239.448 19.3813C238.638 20.2709 237.987 21.3432 237.524 22.5679C237.061 23.7926 236.823 25.1148 236.823 26.5039C236.823 27.8931 237.073 29.2701 237.572 30.4826C238.072 31.6951 238.754 32.7309 239.607 33.5595C240.46 34.3821 241.471 35.0401 242.622 35.5032C243.773 35.9662 245.003 36.2039 246.295 36.2039C247.367 36.2039 248.384 36.0454 249.316 35.7286C250.254 35.4118 251.088 34.9609 251.801 34.3943C252.422 33.9007 252.97 33.3097 253.433 32.6334V36.015H255.741H255.735ZM253.427 26.5283C253.427 27.6128 253.232 28.6365 252.854 29.5626C252.477 30.4887 251.959 31.2808 251.326 31.9144C250.692 32.5481 249.943 33.0538 249.096 33.4133C248.25 33.7728 247.354 33.9556 246.422 33.9556C245.028 33.9556 243.767 33.6266 242.671 32.9807C241.58 32.3349 240.721 31.4392 240.125 30.312C239.528 29.1848 239.223 27.9114 239.223 26.5283C239.223 25.3767 239.418 24.2983 239.796 23.3234C240.173 22.3486 240.697 21.5138 241.349 20.8558C242.001 20.1978 242.774 19.6799 243.645 19.3082C244.516 18.9426 245.454 18.7537 246.435 18.7537C247.415 18.7537 248.372 18.9609 249.242 19.363C250.113 19.7652 250.857 20.3196 251.46 21.0081C252.063 21.6966 252.544 22.5314 252.897 23.4879C253.244 24.4445 253.421 25.462 253.421 26.5283" fill="#E50056"/>
<path d="M191.77 16.6763L186.032 32.7798L180.221 16.6763H177.73L171.993 32.7798L166.182 16.6763H163.587L170.884 36.0152H173.101L178.985 20.2772L184.923 36.0152H187.14L194.364 16.6763H191.77Z" fill="#E50056"/>
<path d="M14.8311 10.9122C8.16778 16.5177 5.08583 26.0531 9.54431 33.9008C15.9153 44.8741 30.7099 46.5009 38.8412 36.4659C47.0942 26.2907 43.6468 13.7393 32.7077 7.31737C30.2714 5.94037 27.5305 4.9716 24.7348 5.27015C23.4131 5.40419 21.8173 5.82461 21.525 7.20161C21.1595 9.2671 23.6811 10.8878 25.3256 11.9906C29.1202 14.3059 33.7249 14.574 38.1468 14.1902C39.6573 14.05 41.1618 13.8246 42.654 13.52C44.2072 13.2702 45.5837 12.5999 47.2221 12.801C47.5693 12.8376 47.7338 13.2945 47.484 13.5382C46.3024 14.7203 44.597 14.9091 43.0682 15.3478C41.5272 15.7256 39.9619 16.0241 38.3783 16.2374C31.9768 17.1574 24.4912 16.2374 19.984 11.0036C18.175 8.96246 18.1445 5.62963 20.3799 3.80785C22.268 2.3029 24.7165 2.05918 27.0006 2.18104C32.9209 2.75987 38.1833 6.32422 41.9109 10.8025C50.1884 20.7401 48.0261 34.5527 37.3611 41.7606C33.9198 44.0638 29.8328 45.4286 25.6911 45.5139C18.2237 45.6601 10.5067 42.2359 6.41363 35.7469C0.706528 26.7964 4.73865 14.3608 13.8018 9.43161C14.7641 8.90762 15.6412 10.2115 14.8311 10.9122Z" fill="#E50056"/>
<path d="M21.397 23.9388C21.397 25.005 20.5321 25.8702 19.4663 25.8702C18.4004 25.8702 17.5355 25.005 17.5355 23.9388C17.5355 22.8725 18.4004 22.0073 19.4663 22.0073C20.5321 22.0073 21.397 22.8725 21.397 23.9388Z" fill="#E50056"/>
<path d="M33.2011 23.9388C33.2011 25.005 32.3362 25.8702 31.2703 25.8702C30.2044 25.8702 29.3395 25.005 29.3395 23.9388C29.3395 22.8725 30.2044 22.0073 31.2703 22.0073C32.3362 22.0073 33.2011 22.8725 33.2011 23.9388Z" fill="#E50056"/>
<path d="M25.3805 35.6617C21.6529 35.6617 18.2176 33.8095 16.4148 30.8361C16.092 30.306 16.2625 29.6114 16.7924 29.2885C17.3223 28.9656 18.0167 29.1362 18.3395 29.6663C19.7343 31.9755 22.4325 33.4134 25.3805 33.4134C28.3284 33.4134 31.0206 31.9816 32.4214 29.6663C32.7443 29.1362 33.4325 28.9656 33.9685 29.2885C34.4984 29.6114 34.669 30.2999 34.3461 30.8361C32.5433 33.8155 29.108 35.6617 25.3805 35.6617Z" fill="#E50056"/>
</g>
</g>
<defs>
<clipPath id="clip0_37768_9085">
<rect width="259" height="48" fill="white"/>
</clipPath>
</defs>
</svg>
